<svg width="209" height="209" viewBox="0 0 209 209" fill="none" xmlns="http://www.w3.org/2000/svg">
<path d="M104.484 0L194.97 52.2421V156.726L104.484 208.968L13.9982 156.726V52.2421L104.484 0Z" fill="url(#paint0_linear_5_35)"/>
<path d="M55.2118 85.7827L55.2341 85.7545L55.2556 85.7256C62.4822 76.0246 72.1532 68.4145 83.2816 63.672C89.7234 60.9721 96.6381 59.5817 103.623 59.5817C110.607 59.5817 117.522 60.9721 123.964 63.672C135.092 68.4145 144.763 76.0246 151.99 85.7256L152.011 85.7545L152.034 85.7827C161.171 97.3396 166.331 111.539 166.746 126.265C166.735 141.691 159.839 153.181 148.61 160.91C137.277 168.711 121.416 172.738 103.623 172.738C85.8293 172.738 69.9687 168.711 58.6351 160.91C47.4065 153.182 40.5103 141.691 40.5 126.265C40.9144 111.539 46.0743 97.3396 55.2118 85.7827Z" stroke="#A9BDD7" stroke-width="5"/>
<path d="M79.4157 59.9429C68.9078 64.778 59.6914 72.0297 52.5197 81.105C50.3068 79.8545 48.369 78.1576 46.8334 76.1148C44.91 73.5559 43.6834 70.5417 43.2737 67.3669C42.864 64.1921 43.2852 60.9652 44.496 58.0019C45.7069 55.0386 47.666 52.4402 50.1818 50.4607C52.6976 48.4813 55.684 47.1885 58.849 46.7089C62.014 46.2292 65.2493 46.579 68.2387 47.7242C71.228 48.8694 73.869 50.7706 75.9035 53.2421C77.5277 55.2152 78.721 57.4978 79.4157 59.9429Z" stroke="#73ABF7" stroke-width="5"/>
<path d="M161.094 75.1404C159.473 77.6156 157.286 79.6574 154.726 81.1047C147.555 72.03 138.339 64.7788 127.832 59.9437C128.914 56.1491 131.188 52.7818 134.343 50.3555C138.01 47.5345 142.602 46.1903 147.212 46.588C151.821 46.9857 156.115 49.0964 159.245 52.5038C162.375 55.9107 164.114 60.3665 164.121 64.9926C164.122 68.5979 163.071 72.125 161.094 75.1404Z" stroke="#73ABF7" stroke-width="5"/>
<defs>
<linearGradient id="paint0_linear_5_35" x1="64.0633" y1="28.2184" x2="154.82" y2="175.03" gradientUnits="userSpaceOnUse">
<stop stop-color="#23282C"/>
<stop offset="1" stop-color="#1E2125"/>
</linearGradient>
</defs>
</svg>
